<svg width="67" height="37" viewBox="0 0 67 37" fill="none" xmlns="http://www.w3.org/2000/svg">
<path d="M7.25 14.1755C3.79875 14.1755 1 16.8875 1 20.2333C1 22.9342 2.09375 29.3444 12.86 35.8244C13.0529 35.9393 13.2743 36 13.5 36C13.7257 36 13.9471 35.9393 14.14 35.8244C24.9062 29.3444 26 22.9342 26 20.2333C26 16.8875 23.2012 14.1755 19.75 14.1755C16.2988 14.1755 13.5 17.8469 13.5 17.8469C13.5 17.8469 10.7012 14.1755 7.25 14.1755Z" stroke="#FF0000" stroke-width="2" stroke-linecap="round" stroke-linejoin="round"/>
<path d="M42 14.7333C42 14.5388 42.0878 14.3523 42.2441 14.2148C42.4004 14.0773 42.6123 14 42.8334 14H45.3334C45.5193 14 45.6999 14.0548 45.8463 14.1555C45.9928 14.2562 46.0968 14.3971 46.1418 14.5559L46.8168 16.9333H66.1674C66.2898 16.9334 66.4106 16.9572 66.5213 17.0031C66.6321 17.0489 66.73 17.1156 66.8081 17.1985C66.8862 17.2814 66.9426 17.3784 66.9733 17.4826C67.004 17.5869 67.0083 17.6958 66.9858 17.8016L64.4857 29.5349C64.4499 29.703 64.3486 29.8548 64.1992 29.964C64.0497 30.0733 63.8616 30.1332 63.6673 30.1333H48.6669C48.4726 30.1332 48.2845 30.0733 48.135 29.964C47.9856 29.8548 47.8843 29.703 47.8485 29.5349L45.3501 17.8236L44.6834 15.4667H42.8334C42.6123 15.4667 42.4004 15.3894 42.2441 15.2519C42.0878 15.1144 42 14.9278 42 14.7333ZM47.1702 18.4L49.3586 28.6667H62.9756L65.164 18.4H47.1702ZM50.3336 30.1333C49.4495 30.1333 48.6016 30.4424 47.9765 30.9925C47.3514 31.5426 47.0002 32.2887 47.0002 33.0667C47.0002 33.8446 47.3514 34.5907 47.9765 35.1408C48.6016 35.691 49.4495 36 50.3336 36C51.2177 36 52.0655 35.691 52.6907 35.1408C53.3158 34.5907 53.667 33.8446 53.667 33.0667C53.667 32.2887 53.3158 31.5426 52.6907 30.9925C52.0655 30.4424 51.2177 30.1333 50.3336 30.1333ZM62.0006 30.1333C61.1165 30.1333 60.2687 30.4424 59.6435 30.9925C59.0184 31.5426 58.6672 32.2887 58.6672 33.0667C58.6672 33.8446 59.0184 34.5907 59.6435 35.1408C60.2687 35.691 61.1165 36 62.0006 36C62.8847 36 63.7326 35.691 64.3577 35.1408C64.9829 34.5907 65.3341 33.8446 65.3341 33.0667C65.3341 32.2887 64.9829 31.5426 64.3577 30.9925C63.7326 30.4424 62.8847 30.1333 62.0006 30.1333ZM50.3336 31.6C50.7756 31.6 51.1996 31.7545 51.5121 32.0296C51.8247 32.3046 52.0003 32.6777 52.0003 33.0667C52.0003 33.4557 51.8247 33.8287 51.5121 34.1038C51.1996 34.3788 50.7756 34.5333 50.3336 34.5333C49.8915 34.5333 49.4676 34.3788 49.155 34.1038C48.8425 33.8287 48.6669 33.4557 48.6669 33.0667C48.6669 32.6777 48.8425 32.3046 49.155 32.0296C49.4676 31.7545 49.8915 31.6 50.3336 31.6ZM62.0006 31.6C62.4427 31.6 62.8666 31.7545 63.1792 32.0296C63.4917 32.3046 63.6673 32.6777 63.6673 33.0667C63.6673 33.4557 63.4917 33.8287 63.1792 34.1038C62.8666 34.3788 62.4427 34.5333 62.0006 34.5333C61.5586 34.5333 61.1346 34.3788 60.8221 34.1038C60.5095 33.8287 60.3339 33.4557 60.3339 33.0667C60.3339 32.6777 60.5095 32.3046 60.8221 32.0296C61.1346 31.7545 61.5586 31.6 62.0006 31.6Z" fill="black"/>
</svg>
